<?xml version="1.0" encoding="utf-8"?>
<!-- Generator: Adobe Illustrator 15.0.0, SVG Export Plug-In . SVG Version: 6.00 Build 0)  -->
<!DOCTYPE svg PUBLIC "-//W3C//DTD SVG 1.1//EN" "http://www.w3.org/Graphics/SVG/1.1/DTD/svg11.dtd">
<svg version="1.1" id="Capa_1" xmlns="http://www.w3.org/2000/svg" xmlns:xlink="http://www.w3.org/1999/xlink" x="0px" y="0px"
	 width="5px" height="5px" viewBox="0 0 5 5" enable-background="new 0 0 5 5" xml:space="preserve">
<g>
	<path fill="#FF0000" d="M4.755,7H4.506l0,0H0.245C0.202,7,0.167,7.035,0.167,7.078s0.035,0.079,0.078,0.079h0.181L0.668,9.17
		c0,0.004,0.001,0.01,0.002,0.014l0.295,2.457C0.992,11.846,1.167,12,1.374,12h2.252c0.206,0,0.382-0.154,0.409-0.359L4.33,9.182
		c0.001-0.004,0.002-0.008,0.002-0.013l0.242-2.013h0.181c0.043,0,0.078-0.035,0.078-0.079C4.833,7.035,4.798,7,4.755,7z
		 M3.086,7.741L3.072,8.085H2.578V7.741H3.086z M4.305,8.085H3.879l0.029-0.344h0.438L4.305,8.085z M4.123,9.589H3.754l0.029-0.345
		h0.382L4.123,9.589z M4.063,10.09h-0.35l0.028-0.345h0.364L4.063,10.09z M3.104,11.092l0.015-0.344H3.5l-0.027,0.344H3.104z
		 M2.578,11.092v-0.344h0.383l-0.014,0.344H2.578z M2.053,11.092l-0.014-0.344h0.383v0.344H2.053z M0.775,8.743h0.4l0.029,0.345
		H0.816L0.775,8.743z M1.333,8.743h0.466l0.014,0.345H1.361L1.333,8.743z M2.422,9.745v0.345H2.011L1.997,9.745H2.422z M1.991,9.589
		L1.976,9.244h0.446v0.345H1.991z M2.578,9.745h0.425L2.989,10.09H2.578V9.745z M2.578,9.589V9.244h0.445L3.01,9.589H2.578z
		 M2.578,9.088V8.743h0.467L3.029,9.088H2.578z M2.422,9.088H1.97L1.955,8.743h0.467V9.088z M1.819,9.244l0.015,0.345H1.403
		L1.374,9.244H1.819z M1.84,9.745l0.014,0.345h-0.41L1.416,9.745H1.84z M1.861,10.246l0.014,0.345H1.486l-0.029-0.345H1.861z
		 M2.018,10.246h0.404v0.345h-0.39L2.018,10.246z M2.578,10.246h0.404l-0.014,0.345h-0.39V10.246z M3.139,10.246h0.404l-0.029,0.345
		H3.125L3.139,10.246z M3.146,10.09L3.16,9.745h0.424L3.555,10.09H3.146z M3.166,9.589l0.016-0.345h0.444L3.598,9.589H3.166z
		 M3.188,9.088l0.015-0.345h0.467l-0.03,0.345H3.188z M3.208,8.586l0.015-0.344h0.486L3.682,8.586H3.208z M3.051,8.586H2.578V8.242
		h0.486L3.051,8.586z M2.422,8.586H1.949L1.935,8.242h0.487V8.586z M1.792,8.586H1.319L1.291,8.242h0.487L1.792,8.586z M1.162,8.586
		H0.756L0.714,8.242h0.419L1.162,8.586z M1.217,9.244l0.028,0.345H0.876L0.835,9.244H1.217z M1.259,9.745l0.029,0.345H0.937
		L0.895,9.745H1.259z M1.301,10.246l0.028,0.345H0.997l0,0l-0.042-0.345H1.301z M1.016,10.748h0.327l0.029,0.344H1.057L1.016,10.748
		z M1.528,11.092L1.5,10.748h0.383l0.014,0.344H1.528z M3.658,10.748h0.326l-0.041,0.344H3.629L3.658,10.748z M4.004,10.591
		L4.004,10.591H3.671l0.028-0.345h0.346L4.004,10.591z M3.796,9.088l0.028-0.345h0.4L4.184,9.088H3.796z M4.244,8.586H3.838
		l0.028-0.344h0.419L4.244,8.586z M3.723,8.085H3.229l0.016-0.344h0.508L3.723,8.085z M2.422,8.085H1.928L1.914,7.741h0.508V8.085z
		 M1.757,7.741l0.014,0.344H1.278L1.249,7.741H1.757z M1.092,7.741l0.029,0.344H0.696L0.654,7.741H1.092z M3.879,11.621
		c-0.016,0.127-0.125,0.223-0.253,0.223H1.374c-0.128,0-0.237-0.096-0.253-0.223l-0.045-0.373h0.38l0,0l0,0h2.088l0,0l0,0h0.38
		L3.879,11.621z M4.364,7.584H0.636L0.584,7.157h3.832L4.364,7.584z"/>
	<path fill="#FF0000" d="M3.707,11.343c-0.043-0.005-0.082,0.026-0.087,0.069l-0.028,0.25c-0.006,0.043,0.025,0.082,0.068,0.087
		c0.003,0.001,0.006,0.001,0.009,0.001c0.04,0,0.073-0.029,0.078-0.07l0.028-0.25C3.781,11.387,3.75,11.348,3.707,11.343z"/>
	<path fill="#FF0000" d="M4.15,7.49c0.004,0,0.008,0,0.01,0c0.039,0,0.074-0.03,0.078-0.069l0.01-0.083
		C4.253,7.295,4.223,7.256,4.18,7.251S4.098,7.277,4.092,7.32l-0.01,0.082C4.078,7.445,4.107,7.484,4.15,7.49z"/>
</g>
</svg>
